<svg id="visual" viewBox="0 0 960 540" width="960" height="540" xmlns="http://www.w3.org/2000/svg" xmlns:xlink="http://www.w3.org/1999/xlink" version="1.1"><path d="M0 448L20 441C40 434 80 420 120 415.8C160 411.7 200 417.3 240 432.5C280 447.7 320 472.3 360 463.5C400 454.7 440 412.3 480 411.2C520 410 560 450 600 445.7C640 441.3 680 392.7 720 369.5C760 346.3 800 348.7 840 364.5C880 380.3 920 409.7 940 424.3L960 439L960 541L940 541C920 541 880 541 840 541C800 541 760 541 720 541C680 541 640 541 600 541C560 541 520 541 480 541C440 541 400 541 360 541C320 541 280 541 240 541C200 541 160 541 120 541C80 541 40 541 20 541L0 541Z" fill="#BFE4BE"></path></svg>