<svg id="visual" viewBox="0 0 900 600" width="900" height="600" xmlns="http://www.w3.org/2000/svg" xmlns:xlink="http://www.w3.org/1999/xlink" version="1.1"><path d="M0 498L18.8 490.2C37.7 482.3 75.3 466.7 112.8 462C150.3 457.3 187.7 463.7 225.2 480.5C262.7 497.3 300.3 524.7 337.8 514.8C375.3 505 412.7 458 450.2 456.8C487.7 455.7 525.3 500.3 562.8 495.5C600.3 490.7 637.7 436.3 675.2 410.5C712.7 384.7 750.3 387.3 787.8 405C825.3 422.7 862.7 455.3 881.3 471.7L900 488L900 601L881.3 601C862.7 601 825.3 601 787.8 601C750.3 601 712.7 601 675.2 601C637.7 601 600.3 601 562.8 601C525.3 601 487.7 601 450.2 601C412.7 601 375.3 601 337.8 601C300.3 601 262.7 601 225.2 601C187.7 601 150.3 601 112.8 601C75.3 601 37.7 601 18.8 601L0 601Z" fill="#BFE4BE"></path></svg>